<?xml version="1.0" encoding="UTF-8" standalone="no"?>
<!DOCTYPE svg PUBLIC "-//W3C//DTD SVG 1.1//EN"
 "http://www.w3.org/Graphics/SVG/1.1/DTD/svg11.dtd">
<!-- Generated by graphviz version 7.1.0 (20230121.1956)
 -->
<!-- Title: G Pages: 1 -->
<svg width="234pt" height="129pt"
 viewBox="0.00 0.00 234.00 129.40" xmlns="http://www.w3.org/2000/svg" xmlns:xlink="http://www.w3.org/1999/xlink">
<g id="graph0" class="graph" transform="scale(1 1) rotate(0) translate(4 125.4)">
<title>G</title>
<polygon fill="white" stroke="none" points="-4,4 -4,-125.4 230,-125.4 230,4 -4,4"/>
<g id="clust1" class="cluster">
<title>clusterLegend</title>
<polygon fill="none" stroke="black" points="8,-8 8,-113.4 218,-113.4 218,-8 8,-8"/>
<text text-anchor="middle" x="113" y="-93.4" font-family="Times,serif" font-size="20.00">Class Levels (Edges)</text>
</g>
<!-- keyLeft -->
<g id="node1" class="node">
<title>keyLeft</title>
<ellipse fill="none" stroke="white" cx="43" cy="-45.7" rx="27" ry="29.9"/>
<text text-anchor="start" x="41" y="-50.5" font-family="Times,serif" font-size="14.00"> </text>
<text text-anchor="start" x="41" y="-33.5" font-family="Times,serif" font-size="14.00"> </text>
</g>
<!-- keyRight -->
<g id="node2" class="node">
<title>keyRight</title>
<ellipse fill="none" stroke="white" cx="149" cy="-45.7" rx="60.62" ry="29.9"/>
<text text-anchor="start" x="115" y="-50.5" font-family="Times,serif" font-size="14.00"> </text>
<text text-anchor="start" x="121" y="-50.5" font-family="Times,serif" font-size="14.00">Not Taught</text>
<text text-anchor="start" x="115" y="-33.5" font-family="Times,serif" font-size="14.00"> </text>
<text text-anchor="start" x="132.5" y="-33.5" font-family="Times,serif" font-size="14.00">Taught</text>
</g>
<!-- keyLeft&#45;&gt;keyRight -->
<g id="edge1" class="edge">
<title>keyLeft:i1&#45;&gt;keyRight:i1</title>
<path fill="none" stroke="#808080" stroke-width="3" d="M47,-54.7C76.33,-54.7 83.67,-54.7 113,-54.7"/>
</g>
<!-- keyLeft&#45;&gt;keyRight -->
<g id="edge2" class="edge">
<title>keyLeft:i2&#45;&gt;keyRight:i2</title>
<path fill="none" stroke="#228b22" stroke-width="3" d="M47,-36.7C76.33,-36.7 83.67,-36.7 113,-36.7"/>
</g>
</g>
</svg>
