<?xml version="1.0" encoding="UTF-8" standalone="no"?>
<!DOCTYPE svg PUBLIC "-//W3C//DTD SVG 1.1//EN"
 "http://www.w3.org/Graphics/SVG/1.1/DTD/svg11.dtd">
<!-- Generated by graphviz version 7.1.0 (20230121.1956)
 -->
<!-- Title: G Pages: 1 -->
<svg width="288pt" height="177pt"
 viewBox="0.00 0.00 288.00 177.48" xmlns="http://www.w3.org/2000/svg" xmlns:xlink="http://www.w3.org/1999/xlink">
<g id="graph0" class="graph" transform="scale(1 1) rotate(0) translate(4 173.48)">
<title>G</title>
<polygon fill="white" stroke="none" points="-4,4 -4,-173.48 284,-173.48 284,4 -4,4"/>
<g id="clust1" class="cluster">
<title>clusterLegend</title>
<polygon fill="none" stroke="black" points="8,-8 8,-161.48 272,-161.48 272,-8 8,-8"/>
<text text-anchor="middle" x="140" y="-141.48" font-family="Times,serif" font-size="20.00">Student Levels (Node Borders)</text>
</g>
<!-- keyLeft -->
<g id="node1" class="node">
<title>keyLeft</title>
<ellipse fill="none" stroke="white" cx="65" cy="-69.74" rx="27" ry="53.98"/>
<text text-anchor="start" x="63" y="-91.54" font-family="Times,serif" font-size="14.00"> </text>
<text text-anchor="start" x="63" y="-74.54" font-family="Times,serif" font-size="14.00"> </text>
<text text-anchor="start" x="63" y="-57.54" font-family="Times,serif" font-size="14.00"> </text>
<text text-anchor="start" x="63" y="-40.54" font-family="Times,serif" font-size="14.00"> </text>
</g>
<!-- keyRight -->
<g id="node2" class="node">
<title>keyRight</title>
<ellipse fill="none" stroke="white" cx="176" cy="-69.74" rx="66.44" ry="53.98"/>
<text text-anchor="start" x="138" y="-91.54" font-family="Times,serif" font-size="14.00"> </text>
<text text-anchor="start" x="144.5" y="-91.54" font-family="Times,serif" font-size="14.00">Not Learned</text>
<text text-anchor="start" x="138" y="-74.54" font-family="Times,serif" font-size="14.00"> </text>
<text text-anchor="start" x="148.5" y="-74.54" font-family="Times,serif" font-size="14.00">Unfamiliar</text>
<text text-anchor="start" x="138" y="-57.54" font-family="Times,serif" font-size="14.00"> </text>
<text text-anchor="start" x="144" y="-57.54" font-family="Times,serif" font-size="14.00">Intermediate</text>
<text text-anchor="start" x="138" y="-40.54" font-family="Times,serif" font-size="14.00"> </text>
<text text-anchor="start" x="152" y="-40.54" font-family="Times,serif" font-size="14.00">Proficient</text>
</g>
<!-- keyLeft&#45;&gt;keyRight -->
<g id="edge1" class="edge">
<title>keyLeft:i1&#45;&gt;keyRight:i1</title>
<path fill="none" stroke="#808080" stroke-width="3" d="M69,-95.74C98.78,-95.74 106.22,-95.74 136,-95.74"/>
</g>
<!-- keyLeft&#45;&gt;keyRight -->
<g id="edge2" class="edge">
<title>keyLeft:i2&#45;&gt;keyRight:i2</title>
<path fill="none" stroke="#ffff00" stroke-width="3" d="M69,-78.74C98.78,-78.74 106.22,-78.74 136,-78.74"/>
</g>
<!-- keyLeft&#45;&gt;keyRight -->
<g id="edge3" class="edge">
<title>keyLeft:i3&#45;&gt;keyRight:i3</title>
<path fill="none" stroke="#ffa500" stroke-width="3" d="M69,-60.74C98.78,-60.74 106.22,-60.74 136,-60.74"/>
</g>
<!-- keyLeft&#45;&gt;keyRight -->
<g id="edge4" class="edge">
<title>keyLeft:i4&#45;&gt;keyRight:i4</title>
<path fill="none" stroke="#228b22" stroke-width="3" d="M69,-43.74C98.78,-43.74 106.22,-43.74 136,-43.74"/>
</g>
</g>
</svg>
